<svg xmlns="http://www.w3.org/2000/svg">
    <defs>

        <!-- SMALL -->

            <!-- Avatar -->

            <symbol id="avatar" viewBox="0 0 25 25">
                <!-- figure -->
                <path d="M14.263,23.779c0.102-0.021,0.204-0.04,0.305-0.063c0.288-0.062,0.565-0.134,0.834-0.214
                    c0.073-0.022,0.147-0.041,0.22-0.063c0.329-0.104,0.641-0.221,0.94-0.345c0.107-0.044,0.212-0.094,0.317-0.141
                    c0.21-0.095,0.411-0.191,0.604-0.291c0.113-0.06,0.227-0.115,0.338-0.177c0.255-0.144,0.49-0.289,0.714-0.434
                    c0.109-0.072,0.216-0.144,0.322-0.218c0.237-0.167,0.452-0.328,0.646-0.484c0.079-0.063,0.157-0.127,0.234-0.192
                    c0.232-0.197,0.424-0.375,0.581-0.528C22.583,18.444,24,15.387,24,12c0-6.617-5.383-12-12-12S0,5.383,0,12
                    c0,3.117,1.206,5.952,3.162,8.088c0.009,0.013,0.012,0.029,0.022,0.043c0.061,0.073,0.786,0.923,2.099,1.808
                    c0.01,0.006,0.019,0.013,0.028,0.02c0.286,0.189,0.594,0.381,0.935,0.567c0.044,0.025,0.089,0.046,0.133,0.069
                    c0.26,0.139,0.537,0.271,0.828,0.399c0.064,0.028,0.128,0.059,0.194,0.086c0.314,0.131,0.645,0.254,0.993,0.364
                    c0.055,0.017,0.111,0.031,0.166,0.047c0.283,0.085,0.577,0.16,0.88,0.228c0.097,0.021,0.194,0.04,0.291,0.06
                    c0.272,0.052,0.551,0.094,0.838,0.128c0.096,0.012,0.191,0.026,0.287,0.036C11.227,23.976,11.606,24,12,24
                    s0.773-0.024,1.142-0.058c0.098-0.01,0.194-0.025,0.292-0.036C13.717,23.872,13.994,23.831,14.263,23.779z M16.569,21.537
                    c-0.03,0.015-0.061,0.03-0.091,0.044c-0.25,0.118-0.517,0.228-0.794,0.332c-0.075,0.028-0.149,0.057-0.225,0.083
                    c-0.242,0.086-0.498,0.16-0.76,0.229c-0.114,0.031-0.226,0.062-0.342,0.089c-0.25,0.058-0.513,0.102-0.779,0.144
                    c-0.124,0.017-0.246,0.042-0.372,0.057c-0.388,0.044-0.788,0.073-1.206,0.073c-0.419,0-0.821-0.029-1.21-0.074
                    c-0.111-0.013-0.219-0.034-0.329-0.051c-0.287-0.043-0.57-0.091-0.84-0.154c-0.088-0.021-0.176-0.045-0.264-0.067
                    c-0.295-0.078-0.582-0.162-0.854-0.259c-0.043-0.015-0.085-0.031-0.128-0.047c-0.31-0.115-0.608-0.238-0.885-0.37
                    c-0.003-0.001-0.007-0.003-0.01-0.005c-0.599-0.285-1.12-0.601-1.557-0.903c-0.211-0.149-0.419-0.3-0.619-0.463
                    c-0.035-0.028-0.06-0.052-0.094-0.079c-0.116-0.098-0.225-0.204-0.337-0.307l5.041-3.069c0.195-0.119,0.321-0.326,0.337-0.554
                    c0.016-0.228-0.08-0.45-0.256-0.596C8.995,14.771,8.64,13.144,8.64,12l0-2.238c0.011-0.301,0.196-2.933,3.362-2.933
                    c3.165,0,3.348,2.632,3.358,2.912V12c0,0.597-0.095,2.618-1.31,3.595c-0.179,0.144-0.277,0.365-0.263,0.595
                    c0.014,0.229,0.139,0.438,0.335,0.557l4.996,3.07c-0.032,0.028-0.063,0.058-0.095,0.086C18.497,20.37,17.676,21.001,16.569,21.537
                    z M12,1.412c5.838,0,10.588,4.75,10.588,10.588c0,2.577-0.928,4.94-2.464,6.778l-4.517-2.775c1.036-1.353,1.164-3.186,1.164-4.003
                    V9.724c-0.036-1.489-1.08-4.307-4.77-4.307c-3.691,0-4.736,2.816-4.773,4.324V12c0,0.45,0.066,2.493,1.206,3.988l-4.567,2.78
                    C2.336,16.932,1.412,14.572,1.412,12C1.412,6.162,6.162,1.412,12,1.412z"/>
            </symbol>

            <!-- Question Small -->

            <symbol id="question-small" viewBox="0 0 30 30">
                <!-- circle -->
                <path d="M15,0C6.714,0,0,6.717,0,15s6.714,15,15,15s15-6.717,15-15S23.285,0,15,0 M15,1.5c7.446,0,13.5,6.057,13.5,13.5S22.445,28.5,15,28.5C7.555,28.5,1.5,22.443,1.5,15S7.556,1.5,15,1.5"/>
                <!-- figure -->
                <circle style="fill:currentColor;" cx="15.064" cy="21.109" r="1.176"/>
                <path style="fill:currentColor;" d="M17.538,9.736c-0.548-0.545-1.323-0.82-2.306-0.82c-0.912,0-1.666,0.26-2.243,0.772
                    c-0.584,0.521-0.886,1.261-0.896,2.2l-0.003,0.303h1.489l0.003-0.297c0.005-0.514,0.149-0.896,0.44-1.171
                    c0.296-0.279,0.692-0.415,1.21-0.415c0.553,0,0.955,0.137,1.23,0.42c0.273,0.283,0.412,0.709,0.412,1.268
                    c0,0.521-0.104,0.942-0.31,1.254c-0.228,0.346-0.612,0.799-1.126,1.334c-0.517,0.467-0.813,0.822-0.931,1.119
                    c-0.108,0.273-0.166,0.729-0.176,1.391l0,0.93h1.482v-0.885c0.001-0.539,0.046-0.805,0.084-0.932c0.033-0.113,0.142-0.307,
                    0.48-0.604c0.635-0.589,1.125-1.152,1.457-1.674c0.351-0.551,0.528-1.205,0.528-1.941C18.364,11.039,18.086,10.281,17.538,9.736z"/>
            </symbol>

            <!-- My list Small (cuore) -->

            <symbol id="my-list-small" viewBox="0 0 30 30">
                <!-- circle -->
                <path d="M15,0C6.714,0,0,6.717,0,15s6.714,15,15,15s15-6.717,15-15S23.285,0,15,0 M15,1.5c7.446,0,13.5,6.057,13.5,13.5S22.445,28.5,15,28.5C7.555,28.5,1.5,22.443,1.5,15S7.556,1.5,15,1.5"/>
                <!-- figure -->
                <path style="fill: currentcolor" d="M15,22.205L15,22.205c-0.203,0-0.398-0.082-0.539-0.229c-0.036-0.037-3.644-3.768-4.973-5.074
                    C8.69,16.115,8.25,15.068,8.25,13.957s0.44-2.158,1.238-2.943c1.467-1.445,3.918-1.59,5.517-0.344
                    c1.598-1.238,4.042-1.09,5.507,0.352c0.799,0.785,1.236,1.83,1.236,2.941c0,1.113-0.438,2.158-1.236,2.943
                    c-1.33,1.309-4.938,5.033-4.974,5.07C15.397,22.123,15.203,22.205,15,22.205z M12.457,11.295c-0.71,0-1.409,0.287-1.917,0.787
                    c-0.51,0.502-0.791,1.168-0.791,1.875c0,0.709,0.281,1.375,0.791,1.875c1.028,1.012,3.393,3.445,4.459,4.545
                    c1.067-1.1,3.431-3.529,4.46-4.541c0.508-0.501,0.789-1.167,0.789-1.875s-0.281-1.371-0.791-1.873
                    c-1.051-1.035-2.892-1.01-3.903,0.107c-0.208,0.229-0.537,0.307-0.826,0.195c-0.136-0.053-0.25-0.141-0.333-0.254
                    C13.878,11.594,13.192,11.295,12.457,11.295z"/>
            </symbol>

            <!-- Alerts Small (bell) -->

            <symbol id="alerts-small" viewBox="0 0 30 30">
                <!-- circle -->
                <path d="M15,0C6.714,0,0,6.717,0,15s6.714,15,15,15s15-6.717,15-15S23.285,0,15,0 M15,1.5c7.446,0,13.5,6.057,13.5,13.5S22.445,28.5,15,28.5C7.555,28.5,1.5,22.443,1.5,15S7.556,1.5,15,1.5"/>
                <!-- figure -->
                <path style="fill: currentcolor" d="m17.414 19.9c-0.271 1.225-1.174 2-2.415 2-1.24 0-2.142-0.775-2.416-2h4.831m1.586-1.5h-8v0.689c0 2.498 1.683 4.311 4 4.311s4-1.813 4-4.311v-0.689z"/>
                <path style="fill: currentcolor" d="m15.005 9.604c1.92 0 3.45 1.782 3.45 3.67v1.474c0 1.835 2.146 3.644 2.219 3.667h-11.348c0.084-0.041 2.178-1.75 2.178-3.669v-1.474c0-1.886 1.555-3.668 3.501-3.668m0-1.5c-2.71 0-5.001 2.366-5.001 5.168v1.474c0 0.93-1.117 2.106-1.531 2.437-0.5 0.344-0.749 0.965-0.607 1.57 0.156 0.682 0.762 1.162 1.461 1.162h11.348c0.738 0 1.365-0.537 1.48-1.266 0.094-0.584-0.166-1.152-0.633-1.473-0.473-0.383-1.566-1.602-1.566-2.43v-1.475c-0.001-2.8-2.268-5.167-4.951-5.167z"/>
                <circle style="fill: currentcolor" cy="7.501" cx="15" r="1.5"/>
            </symbol>

            <!-- Play Small (bell) -->

            <symbol id="play-small" viewBox="0 0 30 30">
                <!-- circle -->
                <path d="M15,0C6.714,0,0,6.717,0,15s6.714,15,15,15s15-6.717,15-15S23.285,0,15,0 M15,1.5c7.446,0,13.5,6.057,13.5,13.5S22.445,28.5,15,28.5C7.555,28.5,1.5,22.443,1.5,15S7.556,1.5,15,1.5"/>
                <!-- figure -->
                <path style="fill:currentcolor" d="M12.97,10l7,5l-7,5V10z"/>
            </symbol>

            <!-- Play opacity Small (bell) -->

            <symbol id="play-small--opacity" viewBox="0 0 30 30">
                <!-- circle -->
                <path d="M14.999,0.763C7.136,0.763,0.763,7.136,0.763,15c0,7.863,6.373,14.238,14.236,14.238c7.865,0,14.238-6.375,14.238-14.238C29.237,7.136,22.864,0.763,14.999,0.763"/>
                <path fill="#FFFFFF" d="M14.97,0c-8.285,0-15,6.716-15,15c0,8.283,6.715,15,15,15c8.285,0,15-6.717,15-15
                C29.971,6.716,23.255,0,14.97,0 M14.97,1.5c7.445,0,13.5,6.056,13.5,13.5c0,7.443-6.056,13.5-13.5,13.5
                c-7.444,0-13.5-6.057-13.5-13.5C1.47,7.556,7.526,1.5,14.97,1.5"/>
                <!-- figure -->
                <path style="fill:currentcolor" d="M12.97,10l7,5l-7,5V10z"/>


            </symbol>


            <!-- Circle Arrow -->

            <symbol id="circle-arrow" viewBox="0 0 30 30">
                <!-- circle -->
                <path d="M15,0C6.714,0,0,6.717,0,15s6.714,15,15,15s15-6.717,15-15S23.285,0,15,0 M15,1.5c7.446,0,13.5,6.057,13.5,13.5S22.445,28.5,15,28.5C7.555,28.5,1.5,22.443,1.5,15S7.556,1.5,15,1.5"/>
                <!-- figure -->
                <polygon style="fill:currentColor;" points="9.31,13.593 10.499,12.323 15,17.129 19.5,12.323
                    20.69,13.593 15,19.669  "/>
            </symbol>

            <!-- Arrow -->

            <symbol id="arrow" viewBox="0 0 12 6">
                <path d="M5.358,5.776L0.264,1.341c-0.352-0.306-0.35-0.805,0.006-1.113 c0.354-0.309,0.926-0.311,1.277-0.005l5.095,4.436C6.994,4.965,6.99,5.463,6.637,5.771C6.281,6.08,5.709,6.082,5.358,5.776z"/>
                <path d="M5.365,4.661l5.088-4.439c0.352-0.307,0.923-0.306,1.278,0.003 c0.353,0.311,0.355,0.809,0.005,1.115l-5.09,4.44C6.295,6.086,5.723,6.084,5.369,5.774C5.016,5.466,5.013,4.968,5.365,4.661z"/>
            </symbol>

            <!-- Loupe -->

            <symbol id="loupe" viewBox="0 0 18.999 20.001">
                <path style="fill:currentColor;" d="M18.608,17.752c-1.459-1.449-2.918-2.9-4.377-4.35c-0.065-0.065-0.134-0.117-0.202-0.165 c1.225-1.405,1.973-3.236,1.973-5.243c0-4.408-3.589-7.995-8-7.995C3.59,0,0,3.586,0,7.995c0,4.41,3.59,7.998,8.002,7.998
                    c1.501,0,2.902-0.423,4.104-1.145c0.063,0.145,0.154,0.287,0.288,0.421c1.459,1.45,2.918,2.899,4.377,4.351 C17.97,20.809,19.808,18.944,18.608,17.752z M2.013,8.013c0-3.31,2.688-6.003,5.99-6.003c3.301,0,5.987,2.692,5.987,6.003
                    c0,3.312-2.687,6.005-5.987,6.005C4.7,14.018,2.013,11.324,2.013,8.013z"/>
            </symbol>



        <!-- MEDIUM -->

            <!-- My list (cuore) -->

            <symbol id="my-list" viewBox="0 0 50 50">
                <!-- circle -->
                <path d="M25,0C11.194,0,0,11.193,0,25c0,13.807,11.194,25,25,25c13.809,0,25-11.193,25-25C50,11.193,38.809,0,25,0
                    M24.999,1.5C37.956,1.5,48.5,12.041,48.5,25c0,12.955-10.545,23.5-23.502,23.5C12.041,48.5,1.5,37.956,1.5,25
                    C1.5,12.041,12.042,1.5,24.999,1.5"/>
                <!-- figure -->
                <path style="fill: currentcolor;" d="M25,35.84L25,35.84c-0.203,0-0.398-0.082-0.539-0.229c-0.062-0.063-6.078-6.277-8.297-8.465
                    c-1.234-1.215-1.914-2.831-1.914-4.549c0-1.719,0.68-3.335,1.914-4.551c1.237-1.216,2.87-1.887,4.599-1.887
                    c1.579,0,3.062,0.565,4.243,1.607c1.182-1.034,2.658-1.595,4.232-1.595c1.729,0,3.361,0.67,4.598,1.887
                    c1.234,1.214,1.914,2.829,1.914,4.547c0,1.719-0.68,3.334-1.914,4.549c-2.219,2.186-8.236,8.396-8.297,8.457
                    C25.397,35.758,25.204,35.84,25,35.84z M20.762,17.659c-1.313,0-2.606,0.531-3.546,1.459c-0.945,0.93-1.466,2.166-1.466,3.48
                    s0.521,2.551,1.466,3.48c1.838,1.811,6.248,6.352,7.785,7.936c1.537-1.584,5.947-6.119,7.783-7.928
                    c0.945-0.932,1.467-2.168,1.467-3.481s-0.521-2.548-1.467-3.478c-0.939-0.926-2.232-1.457-3.545-1.457
                    c-1.406,0-2.715,0.588-3.684,1.656c-0.209,0.229-0.537,0.305-0.826,0.195c-0.145-0.057-0.264-0.152-0.348-0.273
                    C23.42,18.223,22.139,17.659,20.762,17.659z"/>

            </symbol>

            <!-- Alerts (bell) -->

            <symbol id="alerts" viewBox="0 0 50 50">
                <!-- circle -->
                <path  d="M25,0C11.193,0,0,11.192,0,25c0,13.808,11.193,25,25,25c13.81,0,25-11.192,25-25C50,11.192,38.81,0,25,0
                    M24.998,1.5C37.955,1.5,48.5,12.041,48.5,25c0,12.956-10.545,23.5-23.502,23.5C12.041,48.5,1.5,37.956,1.5,25
                    C1.5,12.041,12.041,1.5,24.998,1.5"/>
                <!-- figure -->
                <path style="fill: currentcolor" d="M28.486,32.845c-0.145,1.756-1.565,3-3.486,3c-1.92,0-3.342-1.244-3.487-3H28.486 M30,31.345h-1.25h-7.5H20
                    v1.199c0,2.737,2.148,4.801,5,4.801c2.851,0,5-2.062,5-4.801V31.345z"/>
                <path style="fill:currentcolor" d="M25.01,16.018c3.345,0,6.007,3.104,6.007,6.389v2.566c0,3.191,3.215,6.34,3.34,6.381H15.645
                    c0.145-0.07,3.268-3.045,3.268-6.389v-2.564C18.914,19.122,21.619,16.018,25.01,16.018 M34.361,31.354L34.361,31.354h-0.004H34.361
                    M15.645,31.354c-0.002,0.002-0.002,0.002-0.004,0.002v-0.002H15.645 M25.01,14.519c-4.116,0-7.596,3.61-7.596,7.883v2.566
                    c0,2.332-2.104,4.674-2.637,5.157c-0.385,0.273-0.637,0.722-0.637,1.23c0,0.828,0.674,1.5,1.502,1.5h0.059h18.622h0.036
                    c0.387,0,0.762-0.15,1.043-0.42c0.436-0.426,0.578-1.074,0.348-1.644c-0.106-0.27-0.291-0.496-0.516-0.657
                    c-0.523-0.48-2.717-2.937-2.717-5.162v-2.564C32.517,18.132,29.078,14.519,25.01,14.519"/>
                <path style="fill:currentcolor" d="M25,12.28c0.828,0,1.5,0.671,1.5,1.5c0,0.828-0.672,1.5-1.5,1.5c-0.829,0-1.5-0.672-1.5-1.5
                    C23.5,12.951,24.171,12.28,25,12.28"/>
            </symbol>

            <!-- Share -->

            <symbol id="share" viewBox="0 0 50 50">
                <!-- circle -->
                <path  d="M25,0C11.193,0,0,11.192,0,25c0,13.808,11.193,25,25,25c13.81,0,25-11.192,25-25C50,11.192,38.81,0,25,0
                    M24.998,1.5C37.955,1.5,48.5,12.041,48.5,25c0,12.956-10.545,23.5-23.502,23.5C12.041,48.5,1.5,37.956,1.5,25
                    C1.5,12.041,12.041,1.5,24.998,1.5"/>
                <!-- figure -->
                <path style="fill: currentColor;" d="M27.119,17.215l7.883,7.234l-7.883,7.232v-3.395c0-0.352-0.28-0.633-0.629-0.633
                    c-6.313,0-9.738,1.277-11.488,2.25c1.059-2.99,4.068-8.666,11.488-8.666c0.349,0,0.629-0.283,0.629-0.63V17.215 M27.119,15.715
                    c-0.203,0-0.408,0.043-0.604,0.127c-0.544,0.24-0.896,0.778-0.896,1.373v2.549c-7.912,0.439-11.039,6.838-12.031,9.643
                    c-0.209,0.588-0.031,1.242,0.445,1.645c0.276,0.234,0.621,0.355,0.969,0.355c0.25,0,0.5-0.063,0.728-0.189
                    c1.606-0.893,4.606-1.947,9.89-2.053v2.518c0,0.596,0.354,1.135,0.896,1.373c0.193,0.086,0.398,0.127,0.604,0.127
                    c0.369,0,0.732-0.137,1.015-0.395l7.882-7.23c0.311-0.286,0.486-0.688,0.486-1.105c0-0.42-0.176-0.822-0.484-1.105l-7.882-7.234
                    C27.854,15.852,27.488,15.715,27.119,15.715"/>
            </symbol>

            <!-- info -->

            <symbol id="info" viewBox="0 0 50 50">
                <!-- circle -->
                <path  d="M25,0C11.193,0,0,11.192,0,25c0,13.808,11.193,25,25,25c13.81,0,25-11.192,25-25C50,11.192,38.81,0,25,0
                    M24.998,1.5C37.955,1.5,48.5,12.041,48.5,25c0,12.956-10.545,23.5-23.502,23.5C12.041,48.5,1.5,37.956,1.5,25
                    C1.5,12.041,12.041,1.5,24.998,1.5"/>
                <!-- figure -->
                <rect style="fill: currentColor;" x="24.25" y="22.39" width="1.5" height="12.923"/>
                <circle style="fill: currentColor;" cx="25" cy="16.614" r="1.5"/>
            </symbol>

            <!-- Recommendation -->

            <symbol id="recommendation" viewBox="0 0 50 50">
                <!-- circle -->
                <path d="M25.001,0C11.193,0,0,11.192,0,25c0,13.807,11.193,25,25.001,25S50,38.807,50,25C50,11.192,38.809,0,25.001,0 M24.999,1.5
                    C37.955,1.5,48.5,12.041,48.5,25c0,12.955-10.545,23.5-23.501,23.5C12.041,48.5,1.5,37.955,1.5,25C1.5,12.041,12.041,1.5,24.999,1.5
                    "/>
                <!-- figure -->
                <path style="fill: currentColor;" d="M25.008,12.967c0.802,0,2.221,1.604,2.221,3.588c0,1.791,0.045,2.011-0.586,3.877c7.594,0,7.424,0.201,8.094,0.373
                    c0.83,0.238,0.9,0.923,0.9,1.158c0,0.258-0.006,0.221-0.018,0.476c-0.014,0.373-0.172,1.106-1.5,1.106H32.6
                    c-0.209,0-0.379,0.17-0.379,0.377c0,0.209,0.17,0.379,0.379,0.379h1.473c1.137,0,1.289,0.938,1.215,1.393
                    c-0.094,0.564-0.359,1.629-1.643,1.629h-1.803c-0.213,0-0.381,0.168-0.381,0.378c0,0.208,0.168,0.378,0.381,0.378h1.494
                    c1.283,0,1.168,0.973,0.984,1.553c-0.242,0.763-0.391,1.469-2.004,1.469h-1.24c-0.211,0-0.379,0.169-0.379,0.379
                    c0,0.207,0.168,0.377,0.379,0.377h1.191c0.832,0,0.869,0.781,0.783,1.063c-0.096,0.307-0.207,0.534-0.213,0.545
                    c-0.229,0.412-0.598,0.659-1.381,0.659h-4.15c-2.085,0-4.153-0.471-4.207-0.483c-3.836-0.879-4.17-1.088-4.17-1.739V21.875
                    c3.471-1.43,5.287-5.58,5.318-8.152C24.252,13.361,24.533,12.967,25.008,12.967 M25.008,11.467c-1.231,0-2.244,1.004-2.26,2.238
                    c-0.025,2.096-1.566,5.619-4.389,6.782l-0.93,0.382v1.006v10.024c0,1.979,1.563,2.338,5.335,3.202
                    c0.414,0.092,2.465,0.521,4.542,0.521h4.15c1.258,0,2.162-0.481,2.691-1.429l0.016-0.03l0.016-0.03
                    c0.029-0.057,0.178-0.361,0.305-0.771c0.105-0.346,0.145-0.833,0.016-1.327c0.813-0.548,1.068-1.368,1.221-1.858l0.029-0.092
                    c0.285-0.896,0.199-1.57,0.004-2.051c0.457-0.429,0.844-1.086,1.014-2.089c0.1-0.632-0.01-1.272-0.299-1.802
                    c0.432-0.48,0.629-1.086,0.65-1.646l0.008-0.153c0.006-0.103,0.01-0.162,0.01-0.381c0-1.234-0.781-2.254-1.99-2.6
                    c-0.08-0.021-0.121-0.034-0.162-0.046c-0.643-0.194-1.164-0.351-6.367-0.38c0.107-0.616,0.113-1.164,0.113-2.061l-0.002-0.322
                    C28.729,13.987,26.885,11.467,25.008,11.467"/>
                <path style="fill: currentColor;" d="M16.595,21.316c0.438,0,0.795,0.438,0.795,0.975v9.748c0,0.537-0.356,0.975-0.795,0.975h-1.192
                    c-0.439,0-0.797-0.438-0.797-0.975v-9.748c0-0.537,0.357-0.975,0.797-0.975H16.595 M16.595,19.816h-1.192
                    c-1.267,0-2.297,1.109-2.297,2.475v9.748c0,1.364,1.03,2.475,2.297,2.475h1.192c1.267,0,2.295-1.11,2.295-2.475v-9.748
                    C18.89,20.926,17.861,19.816,16.595,19.816"/>
            </symbol>

            <!-- Parental -->

            <symbol id="parental" viewBox="0 0 50 50">
                <!-- circle -->
                <path d="M25.001,0C11.193,0,0,11.192,0,25c0,13.807,11.193,25,25.001,25S50,38.807,50,25C50,11.192,38.809,0,25.001,0 M24.999,1.5
                    C37.955,1.5,48.5,12.041,48.5,25c0,12.955-10.545,23.5-23.501,23.5C12.041,48.5,1.5,37.955,1.5,25C1.5,12.041,12.041,1.5,24.999,1.5
                    "/>
                <!-- figure -->
                <path style="fill: currentColor;" d="M31.575,24.22c1.452,0,2.635,1.088,2.635,2.43v0.643v1.23v0.097v6.099v0.324c0,0.25-0.26,0.461-0.565,0.461H23.493c-0.31,0-0.568-0.211-0.568-0.461v-0.324v-6.099v-0.097v-1.233v-0.646c0-1.336,1.185-2.424,2.642-2.424H31.575M31.575,22.72h-6.009c-2.291,0-4.142,1.754-4.142,3.924v0.646v1.233v0.097v6.099v0.324c0,1.084,0.927,1.961,2.065,1.961h10.152c1.139,0,2.065-0.877,2.065-1.961v-0.324v-6.099v-0.097v-1.23v-0.643C35.71,24.474,33.857,22.72,31.575,22.72"/>
                <path style="fill: currentColor;" d="M28.568,13.501c1.8,0,3.265,1.464,3.265,3.264c0,1.799-1.465,3.264-3.265,3.264c-1.803,0-3.27-1.465-3.27-3.264C25.301,14.965,26.768,13.501,28.568,13.501 M28.568,12.001c-2.633,0-4.77,2.132-4.77,4.764c0,2.631,2.137,4.764,4.77,4.764c2.632,0,4.765-2.133,4.765-4.764C33.333,14.133,31.2,12.001,28.568,12.001"/>
                <path style="fill: currentColor;" d="M20.16,26.009c0.693,0,1.259,0.502,1.259,1.117v0.43v0.82v0.064v4.061v0.025h-6.522v-0.025V28.44v-0.064v-0.82v-0.435c0-0.612,0.565-1.112,1.26-1.112H20.16 M20.16,24.509h-4.004c-1.524,0-2.76,1.17-2.76,2.612v0.435v0.82v0.064v4.061v0.219c0,0.723,0.618,1.307,1.377,1.307h6.767c0.76,0,1.379-0.584,1.379-1.307v-0.219V28.44v-0.064v-0.82v-0.43C22.919,25.681,21.684,24.509,20.16,24.509"/>
                <path style="fill: currentColor;" d="M18.158,17.667c1.138,0,2.063,0.932,2.063,2.074c0,1.142-0.926,2.074-2.063,2.074c-1.137,0-2.063-0.933-2.063-2.074C16.096,18.599,17.021,17.667,18.158,17.667 M18.158,16.167c-1.969,0-3.563,1.602-3.563,3.574c0,1.974,1.596,3.574,3.563,3.574c1.968,0,3.563-1.601,3.563-3.574C21.723,17.769,20.126,16.167,18.158,16.167"/>
            </symbol>

            <!-- Question -->

            <symbol id="question" viewBox="0 0 50 50">
                <!-- circle -->
                <path d="M25.001,0C11.193,0,0,11.192,0,25c0,13.807,11.193,25,25.001,25S50,38.807,50,25C50,11.192,38.809,0,25.001,0 M24.999,1.5
                    C37.955,1.5,48.5,12.041,48.5,25c0,12.955-10.545,23.5-23.501,23.5C12.041,48.5,1.5,37.955,1.5,25C1.5,12.041,12.041,1.5,24.999,1.5
                    "/>
                <!-- figure -->
                <path style="fill: currentColor;" d="M24.715,36.297c-0.828,0-1.5-0.67-1.5-1.5c0-0.828,0.672-1.5,1.5-1.5c0.829,0,1.5,0.672,1.5,1.5
                    C26.215,35.627,25.544,36.297,24.715,36.297"/>
                <path style="fill: currentColor;" d="M23.974,29.972v-1.001c0.013-1.096,0.101-1.852,0.267-2.268c0.169-0.423,0.656-0.998,1.46-1.726
                    c0.93-0.965,1.601-1.758,2.012-2.381c0.41-0.621,0.615-1.432,0.615-2.431c0-1.101-0.283-1.942-0.85-2.526
                    c-0.567-0.584-1.393-0.876-2.476-0.876c-1.015,0-1.824,0.284-2.424,0.851c-0.601,0.566-0.906,1.358-0.915,2.374H20.14
                    c0.017-1.464,0.472-2.595,1.364-3.39c0.894-0.795,2.06-1.193,3.498-1.193c1.549,0,2.744,0.419,3.586,1.256
                    c0.843,0.838,1.264,2.001,1.264,3.492c0,1.168-0.275,2.183-0.825,3.047c-0.55,0.863-1.354,1.785-2.412,2.767
                    c-0.534,0.465-0.855,0.887-0.965,1.264c-0.109,0.367-0.163,0.947-0.165,1.74v1.001H23.974z"/>

            </symbol>

            <!-- Print -->

            <symbol id="print" viewBox="0 0 50 50">
                <!-- circle -->
                <path d="M25.001,0C11.193,0,0,11.192,0,25c0,13.807,11.193,25,25.001,25S50,38.807,50,25C50,11.192,38.809,0,25.001,0 M24.999,1.5
                    C37.955,1.5,48.5,12.041,48.5,25c0,12.955-10.545,23.5-23.501,23.5C12.041,48.5,1.5,37.955,1.5,25C1.5,12.041,12.041,1.5,24.999,1.5
                    "/>
                <!-- figure -->
                <path style="fill: currentColor;" d="m17.375 35.825v-3.471h-2.023c-1.689 0-3.064-1.374-3.064-3.063v-7.763c0-1.688 1.375-3.063 3.064-3.063h2.023v-4.291h15.252v4.291h2.025c1.688 0 3.063 1.374 3.063 3.063v7.763c0 1.689-1.375 3.063-3.063 3.063h-2.025v3.471h-15.252zm13.844-1.408v-4.113h-12.436v4.113h12.436zm-17.524-5.126c0 0.913 0.742 1.656 1.656 1.656h2.023v-2.052h15.252v2.051h2.025c0.912 0 1.654-0.742 1.654-1.655v-2.611c-0.49 0.321-1.061 0.496-1.654 0.496h-19.299c-0.594 0-1.166-0.176-1.656-0.497v2.612zm1.657-9.418c-0.914 0-1.656 0.743-1.656 1.655v2.584c0 0.912 0.742 1.655 1.656 1.655h19.301c0.912 0 1.654-0.743 1.654-1.655v-2.584c0-0.912-0.742-1.655-1.654-1.655h-19.301zm15.867-1.407v-2.883h-12.436v2.883h12.436z" />

            </symbol>

        <!-- LARGE -->


















    </defs>
</svg>