<svg xmlns="http://www.w3.org/2000/svg">
    <defs>

        <!-- Foxplay -->

        <symbol id="foxplay">
            <polygon  points="10.09,22.943 10.09,3.311 21.879,3.311 22.271,8.687 15.697,8.687 15.697,11.223 21.073,11.226 21.073,16.556 15.697,16.556 15.697,22.944    "></polygon>
            <polygon  points="55.34,22.792 49.41,12.628 54.759,3.239 48.696,3.257 46.399,7.486 44.125,3.271 37.856,3.287  43.362,12.717 37.597,22.834 43.664,22.843 46.363,17.869 49.096,22.81    "></polygon>
            <path  d="M31.279,3.568c-5.175,0.001-9.339,4.294-9.329,9.568c0.015,5.262,4.204,9.52,9.379,9.506   c5.142-0.011,9.327-4.29,9.313-9.552C40.627,7.812,36.419,3.544,31.279,3.568 M31.335,18.608c-0.876,0.007-1.592-0.713-1.592-1.61   l-0.027-7.82c-0.003-0.886,0.714-1.69,1.588-1.696c0.88,0.005,1.645,0.799,1.647,1.692l0.02,7.839  C32.974,17.902,32.209,18.608,31.335,18.608"></path>
            <path  d="M65.181,21.287c-2.078,0-3.342-0.591-4.803-1.994v6.686h-3.736V5.196h3.427v1.824h0.058 c1.291-1.627,3.006-2.358,5.055-2.358c4.577,0,7.807,3.818,7.807,8.257C72.988,17.327,69.758,21.287,65.181,21.287 M64.761,8.088    c-2.697,0-4.608,2.275-4.608,4.887c0,1.937,0.928,3.624,2.726,4.437c0.563,0.281,1.182,0.448,1.825,0.448   c2.64,0,4.55-2.357,4.55-4.885C69.253,10.476,67.4,8.088,64.761,8.088"></path>
            <rect x="73.69"  width="3.735" height="20.782"></rect>
            <path  d="M91.017,20.781v-1.936c-1.236,1.458-3.538,2.441-5.447,2.441c-4.69,0-7.583-3.96-7.583-8.397   c0-4.462,3.201-8.228,7.807-8.228c1.713,0,3.343,0.702,4.606,1.853c0.167,0.169,0.42,0.422,0.561,0.646h0.057V5.196h3.426v15.585    H91.017z M86.356,8.088c-2.781,0-4.635,2.302-4.635,4.97c0,2.614,1.966,4.802,4.635,4.802c2.78,0,4.55-2.244,4.55-4.914 C90.906,10.279,89.108,8.088,86.356,8.088"></path>
            <polygon  points="100.593,25.979 96.577,25.979 99.442,19.322 93.742,5.196 98.009,5.196 101.548,15.193 105.31,5.196 109.551,5.196     "></polygon>
            <polygon  points="0,6.953 7.542,13.541 0,20.128   "></polygon>
        </symbol>

        <!-- FOX+ -->

        <symbol id="foxmas" viewBox="0 0 48.001 20">
            <polygon points="42.997,8.273 39.257,8.273 39.257,4.533 35.894,4.533 35.894,8.273 32.153,8.273 32.153,11.637
                35.894,11.637 35.894,15.377 39.257,15.377 39.257,11.637 42.997,11.637       "/>
            <polygon points="5.997,15.736 5.997,4.264 12.896,4.264 13.114,7.396 9.247,7.402 9.247,8.9 12.398,8.906
                12.398,12.027 9.222,12.027 9.235,15.736 5.997,15.736            "/>
            <polygon points="32.442,15.736 28.79,15.736 27.198,12.848 25.627,15.734 22.066,15.736 25.451,9.828
                22.249,4.305 25.913,4.305 27.235,6.775 28.587,4.305 32.132,4.305 28.989,9.781           "/>
            <path d="M18.396,13.236c-0.512,0-0.931-0.42-0.931-0.943V7.721c0-0.518,0.42-0.988,0.931-0.988
                c0.516,0,0.96,0.471,0.96,0.992v4.58C19.357,12.826,18.908,13.236,18.396,13.236L18.396,13.236z M18.386,4.441
                c-3.024-0.004-5.466,2.496-5.466,5.582c0,3.078,2.442,5.57,5.466,5.57c3.008,0,5.46-2.492,5.46-5.57
                C23.846,6.938,21.394,4.438,18.386,4.441L18.386,4.441z"/>
        </symbol>

    <defs>
</svg>